<svg width="459" height="372" viewBox="0 0 459 372" fill="none" xmlns="http://www.w3.org/2000/svg">
<path fill-rule="evenodd" clip-rule="evenodd" d="M249.371 3.59428C289.08 8.07129 331.103 14.2256 359.832 42.0166C386.977 68.2763 381.332 111.748 396.801 146.212C415.192 187.186 463.568 217.537 458.651 262.183C453.665 307.462 414.265 345.325 372.801 364.132C334.326 381.582 290.711 365.8 249.371 357.104C216.482 350.186 189.549 332.314 158.651 319.085C115.627 300.663 60.9192 302.084 33.0379 264.477C2.31592 223.038 -9.04351 164.371 7.79437 115.603C24.5476 67.0804 72.6611 36.471 119.212 14.8872C159.717 -3.89295 205.011 -1.40733 249.371 3.59428Z" fill="white" fill-opacity="0.8"/>
</svg>
